# xmcd CD database file
#
# Track frame offsets:
#	150
#	13458
#	25115
#	36990
#	48738
#	59440
#	71568
#	82443
#	94153
#	106790
#	118740
#	129925
#	140950
#	151605
#
# Disc length: 2177 seconds
#
# Revision: 0
# Processed by: cddbd v1.5.1PL0 Copyright (c) Steve Scherf et al.
# Submitted via: CDex 1.51
#
DISCID=ca087f0e
DTITLE=Gene Chandler - The Girl Don't Care
DYEAR=1900
DGENRE=Jazz
TTITLE0=Nothing Can Stop Me
TTITLE1=You Can't Hurt Me No More
TTITLE2=Fool For You
TTITLE3=Here Come The Tears
TTITLE4=Good Times
TTITLE5=The Girl Don't Care
TTITLE6=To Choose
TTITLE7=Bet You Never Thought
TTITLE8=BaBy That's Love
TTITLE9=Buddy Ain't It A Shame
TTITLE10=No One Can Love You(Like I Do)
TTITLE11=My Love
TTITLE12=There Goes The Lover
TTITLE13=Tell Me What Can I Do
EXTD=
EXTT0=
EXTT1=
EXTT2=
EXTT3=
EXTT4=
EXTT5=
EXTT6=
EXTT7=
EXTT8=
EXTT9=
EXTT10=
EXTT11=
EXTT12=
EXTT13=
PLAYORDER=
